<svg  xmlns="http://www.w3.org/2000/svg" xmlns:xlink="http://www.w3.org/1999/xlink" width="13" height="15" viewBox="0 0 13 15">
    <g fill="currentColor" fill-rule="evenodd">
        <path fill="currentColor" d="M11.294 13.713H1.072v-1.064c0-2.824 2.561-4.302 5.092-4.302h.037c2.53 0 5.093 1.478 5.093 4.302v1.064zM3.585 3.605c0-1.397 1.11-2.533 2.472-2.533 1.363 0 2.471 1.136 2.471 2.533 0 1.525-1.245 3.645-2.471 3.645S3.585 5.13 3.585 3.605zm4.328 3.867C8.924 6.508 9.6 4.903 9.6 3.605 9.6 1.615 8.013 0 6.057 0 4.1 0 2.514 1.614 2.514 3.605c0 1.32.699 2.958 1.738 3.915C1.792 8.166 0 10.06 0 12.649v2.135h12.365V12.65c0-2.659-1.888-4.583-4.452-5.177z" />
    </g>
</svg>
