<?xml version="1.0" encoding="UTF-8"?>
<svg width="90px" height="64px" viewBox="0 0 90 64" version="1.1" xmlns="http://www.w3.org/2000/svg" xmlns:xlink="http://www.w3.org/1999/xlink">
    <title>131518D2-770B-462F-B1A3-8D47CF7FBD01</title>
    <g id="Symbols" stroke="none" stroke-width="1" fill="none" fill-rule="evenodd">
        <g id="flags" transform="translate(-46.000000, -69.000000)">
            <g id="can-flag" transform="translate(46.000000, 69.000000)">
                <rect id="Rectangle" fill="#FFFFFF" x="0" y="0" width="90" height="64"></rect>
                <g id="Group" fill="#E02020" fill-rule="nonzero">
                    <path d="M44.239,50.788 L45.761,50.788 L45.39,42.439 C45.36,41.755 45.959,41.212 46.636,41.31 L54.511,42.445 L53.769,40.032 C53.638,39.607 53.778,39.145 54.123,38.865 L62.577,31.981 L61.013,31.248 C60.533,31.023 60.284,30.485 60.423,29.973 L61.843,24.745 L57.241,25.715 C56.686,25.832 56.133,25.504 55.97,24.96 L55.412,23.1 L51.387,27.586 C50.898,28.131 50,27.688 50.136,26.968 L51.888,17.669 L49.495,18.91 C48.97,19.182 48.323,18.987 48.037,18.468 L45,12.962 L41.961,18.466 C41.675,18.984 41.028,19.18 40.503,18.908 L38.11,17.667 L39.862,26.966 C39.998,27.686 39.101,28.129 38.611,27.584 L34.586,23.098 L34.028,24.958 C33.865,25.502 33.313,25.83 32.757,25.713 L28.155,24.743 L29.575,29.971 C29.714,30.483 29.465,31.02 28.985,31.246 L27.421,31.979 L35.875,38.863 C36.22,39.144 36.36,39.606 36.229,40.03 L35.487,42.443 L43.362,41.308 C44.04,41.21 44.639,41.753 44.608,42.437 L44.239,50.788 Z" id="Path"></path>
                    <rect id="Rectangle" x="0" y="0" width="22.116" height="63.75"></rect>
                    <rect id="Rectangle" x="67.883" y="0" width="22.116" height="63.75"></rect>
                </g>
            </g>
        </g>
    </g>
</svg>