<svg xmlns="http://www.w3.org/2000/svg" width="96" height="49" viewBox="0 0 96 49">
    <path fill="#464646" fill-rule="evenodd" d="M13.58 28.776c.113-.094 4.374-2.562 4.984-2.884.438-.222.87-.443 1.308-.664.026-.014 1.652-.872 2.449-1.261.318-.155 3.145-1.55 3.71-2.12a2.69 2.69 0 0 0 .889-1.858c-.286-.114-.545-.235-.817-.328a7.131 7.131 0 0 1-2.82-1.932 22.02 22.02 0 0 1-2.807-4.709c-.379-1.187-.87-3.099-.604-4.601.227-1.29.54-2.563.935-3.81a8.614 8.614 0 0 1 1.467-2.542A8.713 8.713 0 0 1 24.484.41c1.274-.61 3.06-.442 4.367-.12.345.08.67.268 1.015.355a7.545 7.545 0 0 1 2.07 1.603 9.192 9.192 0 0 1 1.01 2.032 8.483 8.483 0 0 1 .218 4.038c-.066.51-.624 2.891-.683 3.186a12.9 12.9 0 0 1-.246 1c-.093.308-.206.61-.305.919l-1.215 3.695c-.152.457-.305.913-.49 1.355-.186.443.218.59.417.758.221.128.492.134.717.014.364-.363.707-.746 1.029-1.147.179-.195.418-.322.61-.497.126-.114 4.772-3.729 5.416-3.957.842-.302 1.632-.745 2.462-1.093.373-.16.766-.269 1.168-.322a.836.836 0 0 1 .57.322c.287.374.55.766.79 1.173a.984.984 0 0 1 0 1.181 15.26 15.26 0 0 1-1.433 1.637c-.246.248-2.695 1.596-3.285 1.958-.12.074-2.383 1.134-2.894 1.315a4.313 4.313 0 0 0-1.825.993c-.365.382-.71.791-1.042 1.2a2.04 2.04 0 0 0-.199.476c1.049.074 1.978.732 3.007.208-.054-.543 2.535-.644 2.96-.845a17.64 17.64 0 0 1 1.778-.583c.697-.295 1.407-.577 2.09-.9.438-.207 1.825-.911 2.097-1.039.272-.127.551-.268.823-.409.152-.081.299-.173.438-.275.04-.02 2.854-1.979 2.947-2.06.352-.288.723-.55 1.048-.858.326-.308.604-.69.936-1.013.212-.207.498-.335.71-.55.248-.274.476-.565.684-.871.49-.665.935-1.376 1.48-1.993a2.204 2.204 0 0 1 1.048-.53c.21.062.394.192.524.37.449.36.71.909.71 1.488-.104.478-.303.93-.584 1.329-.524.952-1.101 1.87-1.612 2.83-.67 1.274-1.294 2.582-1.951 3.87-.16.316-.372.604-.531.912-.062.19-.102.386-.12.584 1.062-.436 3.584-1.013 3.93-1.194.59-.302 1.233-.496 1.844-.751.146-.06 3.285-1.77 3.411-1.892.577-.295 1.155-.59 1.725-.892.197-.095.388-.203.571-.322.086-.053 1.772-1.254 1.918-1.361.259-.188 4.287-3.019 4.506-3.213.345-.302.637-.67.962-1a.76.76 0 0 1 .432-.174c.292-.355.564-.718.87-1.046a1.073 1.073 0 0 1 1.433.154c.252.597.736 1.14.57 1.871a2.3 2.3 0 0 1-.186.651 68.781 68.781 0 0 1-1.725 2.844c-.657 1.006-1.347 1.985-2.03 2.978-.412.597-.843 1.187-1.255 1.79a1.034 1.034 0 0 0-.146.49c.498-.248 5.163-.999 5.429-1.06.385-.039.764-.127 1.128-.26a22.365 22.365 0 0 1 2.933-.45 52.537 52.537 0 0 0 2.17-.329c.173-.033.352-.027.524-.06.505-.067 3.763-.906 4.228-.98.252-.04 3.404-.858 5.607-1.67 1.016-.49 3.352-1.469 3.464-1.482a7.77 7.77 0 0 0 2.476-1.315 1.642 1.642 0 0 1-.896 1.57c-.775.37-1.42.968-1.852 1.717a.649.649 0 0 1-.331.275c-1.76.744-3.511 1.516-5.303 2.193-1.247.47-2.548.805-3.829 1.208-.962.301-1.918.637-2.893.898-1.022.275-2.058.477-3.086.711-1.095.255-2.19.51-3.285.745-.584.127-1.175.181-1.752.302-1.766.382-3.53.771-5.29 1.18a55.45 55.45 0 0 0-2.926.792c-.39.107-.76.28-1.095.51-.896.6-1.972.86-3.04.737a3.655 3.655 0 0 1-1.559-.637 10.008 10.008 0 0 1-1.62-1.288c-.183-.237-.3-.52-.338-.818a.297.297 0 0 0-.162-.259.291.291 0 0 0-.302.024c-.856.383-1.7.812-2.575 1.147-1.666.644-3.345 1.241-5.03 1.838a6.691 6.691 0 0 1-1.288.362c-1.984.309-3.212-.328-3.915-2.213a4.696 4.696 0 0 1-.1-1.308c-.02-.403-.152-.483-.524-.309-.637.309-1.261.664-1.925.926-1.533.604-3.079 1.207-4.645 1.73-.836.285-1.703.467-2.582.544a17.882 17.882 0 0 1-2.535-.128.38.38 0 0 1-.179-.073c-.411-.269-.843-.517-1.22-.819a2.026 2.026 0 0 1-.512-1.61 1.747 1.747 0 0 0-.146-.47 4.16 4.16 0 0 1-.451.175c-.996.255-1.088 1.241-1.513 1.939-1.221 2.005-2.39 4.03-3.624 6.03-.49.757-1.019 1.487-1.586 2.186-.63.812-1.274 1.61-1.95 2.382-.505.583-1.076 1.113-1.6 1.683-.69.758-1.347 1.556-2.057 2.3-.624.651-1.301 1.255-1.971 1.865-.863.778-1.706 1.59-2.615 2.301-1.135.892-2.336 1.697-3.497 2.549-.379.275-.737.577-1.102.865a8.879 8.879 0 0 1-3.75 1.69 4.137 4.137 0 0 1-1.698-.013A1.963 1.963 0 0 1 .38 47.718a4.264 4.264 0 0 1-.305-1.348 6.327 6.327 0 0 1 .113-2.509 31.906 31.906 0 0 1 2.09-4.574 38.628 38.628 0 0 1 6.192-6.735c.139-.114 4.711-3.454 5.11-3.776zM8.014 43.07a92.455 92.455 0 0 1 2.336-1.966c.557-.442 1.121-.905 1.679-1.355.584-.476 1.168-.945 1.745-1.422.504-.402 1.009-.805 1.5-1.227.192-.161 1.679-1.449 1.825-1.623.431-.49 3.948-4.675 4.247-5.01.308-.406.587-.831.836-1.275.073-.114.982-1.308 1.095-1.516.252-.476.511-.946.763-1.415a1.678 1.678 0 0 0-.08-.114c-.444.208-.902.395-1.34.63a215.32 215.32 0 0 1-3.424 1.778c-.69.335-3.053 1.797-3.564 2.133-.55.355-5.375 4.091-5.568 4.312-.212.235-1.154 1.033-1.274 1.174-.624.711-1.287 1.395-1.885 2.127a20.31 20.31 0 0 0-3.012 4.695c-.339.771-.598 1.59-.896 2.401.942.241 4.625-1.959 5.017-2.327zm17.6-25.992c.51.336.73.49 1.107.725.268.16.545.303.83.429a.361.361 0 0 0 .347.026.368.368 0 0 0 .21-.281c.492-1.348 1.003-2.69 1.494-4.038.239-.664.477-1.335.663-2.019.113-.43.232-1.033.345-1.462.304-1.455.38-2.948.226-4.427a3.02 3.02 0 0 0-1.055-2.327 4.252 4.252 0 0 0-3.192-.698 4.497 4.497 0 0 0-2.675 1.596c-.3.38-.52.818-.643 1.288a7.778 7.778 0 0 0-.392 1.697c-.11.964-.155 1.934-.133 2.904a12.786 12.786 0 0 0 1.049 4.085 6.209 6.209 0 0 0 1.818 2.502zm42.359-.57a.774.774 0 0 1-.073-.033c-.292.18-.604.342-.883.543-.83.604-1.64 1.24-2.482 1.831-.783.557-1.606 1.066-2.409 1.59-.763.51-1.533 1.012-2.303 1.516l.06.234c.284.064.572.102.863.114a8.712 8.712 0 0 1 1.891-.14 1.538 1.538 0 0 0 1.546-.752c.843-.986 1.64-2.019 2.456-3.032.152-.187.318-.368.458-.57.298-.429.584-.865.876-1.3zM47.73 22.384c.425-.792 1.168-1.375 1.34-2.442-.345.215-.597.37-.849.523-.398.242-.81.47-1.194.738a.704.704 0 0 0-.253.477c.195.37.547.63.956.704z"/>
</svg>
