<?xml version="1.0" encoding="UTF-8"?>
<svg width="15.8695652px" height="19px" viewBox="0 0 15.8695652 19" version="1.1" xmlns="http://www.w3.org/2000/svg" xmlns:xlink="http://www.w3.org/1999/xlink">
    <title>lock</title>
    <g id="**Checkout-flow" stroke="none" stroke-width="1" fill="none" fill-rule="evenodd">
        <g id="Checkout_2023_step-1_d" transform="translate(-939.5, -781.5)" fill-rule="nonzero" stroke="#979797">
            <g id="Group-12" transform="translate(889, 776)">
                <g id="Group-10" transform="translate(51, 0)">
                    <g id="lock" transform="translate(0, 6)">
                        <path d="M12.5329193,6.69767442 L12.3204969,6.69767442 L12.3204969,4.81395349 C12.3204969,2.15528039 10.1330881,0 7.43478261,0 C4.73647712,0 2.54906832,2.15528039 2.54906832,4.81395349 L2.54906832,6.69767442 L2.33664596,6.69767442 C1.04615203,6.69767442 0,7.72846069 0,9 L0,15.6976744 C0,16.9692137 1.04615203,18 2.33664596,18 L12.5329193,18 C13.8234132,18 14.8695652,16.9692137 14.8695652,15.6976744 L14.8695652,9 C14.8695652,7.72846069 13.8234132,6.69767442 12.5329193,6.69767442 Z M3.82360248,4.81395349 C3.82360248,2.84884731 5.44038292,1.25581401 7.43478261,1.25581401 C9.4291823,1.25581401 11.0459627,2.84884731 11.0459627,4.81395349 L11.0459627,6.69767442 L3.82360248,6.69767442 L3.82360248,4.81395349 Z M8.07204969,12.2232558 L8.07204969,13.8976744 C8.07204969,14.2444579 7.7867355,14.5255814 7.43478261,14.5255814 C7.08282972,14.5255814 6.79751553,14.2444579 6.79751553,13.8976744 L6.79751553,12.2232558 C6.53006957,12.0256175 6.37267081,11.7154437 6.37267081,11.3860465 C6.37267081,10.8080741 6.84819446,10.3395349 7.43478261,10.3395349 C8.02137076,10.3395349 8.49689441,10.8080741 8.49689441,11.3860465 C8.49689441,11.7154437 8.33949565,12.0256175 8.07204969,12.2232558 L8.07204969,12.2232558 Z" id="Shape"></path>
                    </g>
                </g>
            </g>
        </g>
    </g>
</svg>