<svg xmlns="http://www.w3.org/2000/svg" width="62" height="39" viewBox="0 0 62 39">
    <path fill="#464646" fill-rule="evenodd" d="M42.303 19.628c.252-.47.479-.954.758-1.405.193-.29.408-.565.646-.82.24-.282.499-.55.732-.84a2.619 2.619 0 0 1 1.477-1.022c.745-.154 2.615 1.425 2.728 1.714.42 1.136.785 2.3 1.218 3.435.186.491.572.921.712 1.425.156.492.438.933.819 1.278.552.584.745.55 1.13-.142.367-.665.68-1.364 1.079-2.003a34.28 34.28 0 0 0 1.437-3.146c.32-.62.602-1.26.845-1.915.28-.787.493-1.593.726-2.393.26-.915.499-1.829.765-2.743.06-.215.173-.41.233-.625.18-.578.34-1.163.512-1.761.067.06 2.143-4.867 2.223-5.102.146-.43.333-.847.492-1.27.04-.095.46-1.386.686-1.923.11-.146.246-.27.399-.37.055.148.082.306.08.464-.326 1.163-.612 2.346-1.038 3.468-.153.41-.772 3.55-.872 4.255-.073.498-.126.995-.193 1.5-.106.786-.206 1.572-.313 2.366-.006.02-.372 2.05-.512 3.045-.209.956-.5 1.892-.872 2.796-.193.625-.353 1.27-.559 1.896a21.96 21.96 0 0 1-.692 1.808c-.36.82-.745 1.633-1.151 2.433-.241.464-.513.91-.812 1.338-.106.161-1.817 2.232-2.668 1.93a6.12 6.12 0 0 1-1.458-.848 9.654 9.654 0 0 1-1.59-1.304 7.993 7.993 0 0 1-.919-1.089 14.441 14.441 0 0 1-.858-1.29c-.446-.968-.812-1.977-1.224-2.965a.24.24 0 1 0-.446-.108.795.795 0 0 0-.233.316c-.127.33-.246.66-.38.982-.405.968-.791 1.943-1.217 2.897a11.278 11.278 0 0 1-.885 1.687 1.062 1.062 0 0 1-.779.45 2.273 2.273 0 0 1-1.47-.49 3.145 3.145 0 0 1-1.085-1.277c-.113-.35-.233-.7-.346-1.049-.047-.128-.08-.262-.14-.47-.192.178-.37.371-.532.578-.746 1.142-1.451 2.312-2.223 3.435-.457.61-.945 1.196-1.464 1.754-.313.363-.645.713-.978 1.062a.357.357 0 0 1-.173.114c-.918.06-1.83.242-2.649-.49a3.14 3.14 0 0 1-.791-1.331 7.91 7.91 0 0 1-.446-3.059 6.43 6.43 0 0 1 .485-2.514 4.353 4.353 0 0 1 1.777-2.104.93.93 0 0 1 1.018.08c.383.258.75.538 1.098.841.206.454.173.98-.086 1.405-.127.188-.32.33-.446.518a2.875 2.875 0 0 0-.506 1.33c-.026.317-.073.632-.073.955.032.129.088.25.166.356.097-.042.187-.099.267-.168a23.574 23.574 0 0 0 2.508-3.394c.66-1.035 1.438-1.997 2.136-3.005.136-.254.236-.525.3-.807a.373.373 0 0 1 .066-.195c.254-.2.547-.347.859-.43a1.8 1.8 0 0 1 1.504.283.285.285 0 0 0 .093.087c.825.195.932.86.971 1.573a.893.893 0 0 0 .134.013zM18.107 32.716c.174-.01.349.003.519.04a6.35 6.35 0 0 0 1.164.377c.673.139 1.37.088 2.017-.148a6.035 6.035 0 0 0 1.737-1.58c.164-.138.304-.304.412-.49.366-.928.978-1.856.513-2.877a2.285 2.285 0 0 0-1.092-.955 15.504 15.504 0 0 0-2.495-.88 10.8 10.8 0 0 0-2.076-.343 5.592 5.592 0 0 1-2.948-1.15 3.724 3.724 0 0 1-.912-1.479.85.85 0 0 1 .24-.692c.472-.47 1.004-.88 1.503-1.324.107-.101 1.724-1.587 2.45-2.192.04-.033 2.255-1.828 3.267-2.5a.908.908 0 0 1 .638.006 1.86 1.86 0 0 1 1.278 1.07c.266.637.246 1.36-.053 1.982a.463.463 0 0 1-.42.128c-.698-.262-1.164.202-1.623.544a20.792 20.792 0 0 0-1.81 1.627c-.426.41-.812.867-1.238 1.331.466.128.885.256 1.311.35 1.163.24 2.308.56 3.427.96a7.488 7.488 0 0 1 3.288 2.233c.224.326.376.697.445 1.089.133.453.192.925.173 1.398a4.967 4.967 0 0 1-.685 2.326c-.266.463-.557.912-.872 1.344-.36.457-.825.82-1.164 1.29a3.581 3.581 0 0 1-2.09 1.325c-.79.19-1.603.269-2.415.235-.985-.027-1.624-.813-2.363-1.338a.928.928 0 0 1-.206-.625c.006-.362.033-.723.08-1.082zm-3.234-6.89a2.058 2.058 0 0 0-.206-.981 5.643 5.643 0 0 0-1.318-.834 8.363 8.363 0 0 1-.992-.464c-.015-.226.02-.453.1-.665a1.53 1.53 0 0 1 0-.175c.02-.128.266-.8.4-1.244.292-.974.638-1.929.998-2.877.246-.652.585-1.27.838-1.922a.847.847 0 0 0 .013-.686 3.877 3.877 0 0 0-.865-1.008 1.849 1.849 0 0 0-2.389.8c-.439 1.23-.87 2.46-1.29 3.69-.413 1.21-.8 2.427-1.178 3.583-.872.128-1.677.208-2.47.377a.379.379 0 0 1-.356 0 .386.386 0 0 1-.202-.296c-.3-.995-.62-1.977-.919-2.965a2.271 2.271 0 0 0-1.87-1.216h-.04a2.03 2.03 0 0 0-1.257 1.445c.022.224.068.445.14.659.07.453.168.902.292 1.344.253.686.58 1.344.859 2.017.28.658.273.665-.273 1.129a1.946 1.946 0 0 0-.14.108 5.264 5.264 0 0 0-1.597 1.949c-.133.343-.785 3.831-.818 3.926a7.843 7.843 0 0 0 .013 4.564c.12.477.186.968.3 1.445.259 1.062 1.663 1.754 2.235 1.358a6.977 6.977 0 0 0 1.657-.639c.506-.473.983-.976 1.431-1.505a12.085 12.085 0 0 0 1.883-2.83c.311-.662.665-1.302 1.058-1.916a.521.521 0 0 1 .38-.202c.312-.013.625.047.938.054.752.013 1.87-.666 2.016-1.385.147-.72.666-1.27.712-2.063a13.84 13.84 0 0 1 .074-1.48 1.07 1.07 0 0 1 .266-.524c.23.072.452.164.665.276.164.069.342.096.52.08a1.9 1.9 0 0 0 .445-.45c-.02-.154-.02-.316-.053-.477zm-8.438 4.033c-.546 1.082-1.085 2.178-1.697 3.227-.386.659-.898 1.237-1.33 1.868a6.03 6.03 0 0 0-.4.774.154.154 0 0 0-.047-.054A1.744 1.744 0 0 1 2.07 34.1c.004-1.17.163-2.334.472-3.462.216-.651.54-1.26.958-1.802.213-.268 1.178-.78 1.278-.907.24-.303.38-.128.532.074.353.484.706.961 1.038 1.459a.5.5 0 0 1 .087.396zM10.4 28.2c.24-.558 1.49-2.669 1.723-3.186.192.254.399.496.62.726-.2.578-1.518 2.594-2.343 2.46z"/>
</svg>
